<svg width="611" height="418" viewBox="0 0 611 418" fill="none" xmlns="http://www.w3.org/2000/svg">
<g style="mix-blend-mode:lighten">
<rect x="1" y="1.20132" width="609" height="415.138" rx="5.6849" fill="#09090B" stroke="#4E9F3D" stroke-width="2"/>
<rect x="320.538" y="252.34" width="257.374" height="127.101" rx="3.51403" fill="#09090B" stroke="#4E9F3D" stroke-width="2"/>
<path d="M77.5312 39.6606C77.5312 50.3571 68.8548 59.0283 58.1518 59.0283C47.4489 59.0283 38.7725 50.3571 38.7725 39.6606C38.7725 28.9641 47.4489 20.2928 58.1518 20.2928C68.8548 20.2928 77.5312 28.9641 77.5312 39.6606Z" fill="#4E9F3D"/>
<path d="M77.5312 39.6606C77.5312 50.3571 68.8548 59.0283 58.1518 59.0283C47.4489 59.0283 38.7725 50.3571 38.7725 39.6606C38.7725 28.9641 47.4489 20.2928 58.1518 20.2928C68.8548 20.2928 77.5312 28.9641 77.5312 39.6606Z" stroke="#4E9F3D"/>
<path d="M77.5449 39.6238C77.5449 34.5194 75.5286 29.6213 71.9345 25.9946C68.3403 22.368 63.4589 20.3059 58.3516 20.2569C53.2444 20.2079 48.3243 22.1758 44.6611 25.7328C40.9979 29.2898 38.8878 34.1483 38.7897 39.2518C38.6916 44.3553 40.6134 49.2911 44.1372 52.9861C47.661 56.6811 52.5018 58.8365 57.6072 58.9835C62.7126 59.1306 67.6696 57.2574 71.4005 53.7714C75.1314 50.2854 77.3344 45.4683 77.5306 40.3677L76.6495 40.3338C76.4623 45.2024 74.3595 49.8003 70.7983 53.1277C69.0399 54.7708 67.1713 48.7605 65.1435 42.2377C63.0647 35.5511 60.8184 28.3258 58.3516 28.2548C55.88 28.1836 53.2883 35.2979 50.8953 41.8668C48.5703 48.2489 46.4329 54.1162 44.7754 52.3781C41.412 48.8513 39.5776 44.14 39.6713 39.2687C39.7649 34.3974 41.779 29.76 45.2755 26.3648C48.772 22.9697 53.4683 21.0913 58.3432 21.1381C63.2181 21.1849 67.8774 23.1531 71.308 26.6147C74.7386 30.0764 76.6632 34.7516 76.6632 39.6238H77.5449Z" fill="#D8E9A8"/>
<path d="M77.5449 39.6238C77.5449 34.5194 75.5286 29.6213 71.9345 25.9946C68.3403 22.368 63.4589 20.3059 58.3516 20.2569C53.2444 20.2079 48.3243 22.1758 44.6611 25.7328C40.9979 29.2898 38.8878 34.1483 38.7897 39.2518C38.6916 44.3553 40.6134 49.2911 44.1372 52.9861C47.661 56.6811 52.5018 58.8365 57.6072 58.9835C62.7126 59.1306 67.6696 57.2574 71.4005 53.7714C75.1314 50.2854 77.3344 45.4683 77.5306 40.3677L76.6495 40.3338C76.4623 45.2024 74.3595 49.8003 70.7983 53.1277C69.0399 54.7708 67.1713 48.7605 65.1435 42.2377C63.0647 35.5511 60.8184 28.3258 58.3516 28.2548C55.88 28.1836 53.2883 35.2979 50.8953 41.8668C48.5703 48.2489 46.4329 54.1162 44.7754 52.3781C41.412 48.8513 39.5776 44.14 39.6713 39.2687C39.7649 34.3974 41.779 29.76 45.2755 26.3648C48.772 22.9697 53.4683 21.0913 58.3432 21.1381C63.2181 21.1849 67.8774 23.1531 71.308 26.6147C74.7386 30.0764 76.6632 34.7516 76.6632 39.6238H77.5449Z" stroke="#4E9F3D"/>
<path d="M96.6998 38.6961C96.4055 38.1566 96.0009 37.7458 95.4859 37.4638C94.9709 37.1818 94.3701 37.0408 93.6835 37.0408C92.9233 37.0408 92.2489 37.2125 91.6604 37.5558C91.0718 37.8991 90.612 38.3896 90.281 39.0272C89.9499 39.6647 89.7844 40.4004 89.7844 41.2342C89.7844 42.0925 89.9499 42.8404 90.281 43.478C90.6243 44.1156 91.0963 44.6061 91.6971 44.9494C92.2979 45.2927 92.9968 45.4644 93.7938 45.4644C94.7747 45.4644 95.5779 45.2069 96.2032 44.6919C96.8285 44.1647 97.2393 43.4351 97.4355 42.5033H93.0214V40.5353H99.9736V42.7791C99.8019 43.6742 99.4341 44.5019 98.87 45.2621C98.306 46.0223 97.5765 46.6353 96.6814 47.1013C95.7986 47.5549 94.8054 47.7818 93.7019 47.7818C92.4635 47.7818 91.3416 47.5059 90.3361 46.9541C89.343 46.3901 88.5582 45.6115 87.9819 44.6183C87.4179 43.6252 87.1359 42.4971 87.1359 41.2342C87.1359 39.9713 87.4179 38.8432 87.9819 37.8501C88.5582 36.8446 89.343 36.066 90.3361 35.5143C91.3416 34.9502 92.4573 34.6682 93.6835 34.6682C95.1303 34.6682 96.3871 35.0238 97.4539 35.735C98.5206 36.4339 99.2563 37.4209 99.6609 38.6961H96.6998ZM100.849 42.54C100.849 41.5101 101.051 40.5966 101.456 39.7996C101.872 39.0026 102.43 38.3896 103.129 37.9604C103.84 37.5313 104.631 37.3167 105.502 37.3167C106.262 37.3167 106.924 37.47 107.488 37.7765C108.064 38.083 108.524 38.4693 108.868 38.9352V37.4822H111.461V47.6714H108.868V46.1817C108.536 46.6599 108.077 47.0583 107.488 47.3771C106.912 47.6837 106.244 47.8369 105.483 47.8369C104.625 47.8369 103.84 47.6162 103.129 47.1748C102.43 46.7334 101.872 46.1142 101.456 45.3172C101.051 44.508 100.849 43.5823 100.849 42.54ZM108.868 42.5768C108.868 41.9515 108.745 41.4181 108.5 40.9767C108.254 40.523 107.923 40.1797 107.507 39.9468C107.09 39.7015 106.642 39.5789 106.164 39.5789C105.686 39.5789 105.244 39.6954 104.84 39.9284C104.435 40.1613 104.104 40.5046 103.847 40.9583C103.601 41.3997 103.479 41.927 103.479 42.54C103.479 43.1531 103.601 43.6926 103.847 44.1585C104.104 44.6122 104.435 44.9617 104.84 45.2069C105.257 45.4521 105.698 45.5747 106.164 45.5747C106.642 45.5747 107.09 45.4582 107.507 45.2253C107.923 44.98 108.254 44.6367 108.5 44.1953C108.745 43.7416 108.868 43.2021 108.868 42.5768ZM114.914 36.2683C114.46 36.2683 114.08 36.1273 113.773 35.8453C113.479 35.5511 113.332 35.1893 113.332 34.7602C113.332 34.331 113.479 33.9755 113.773 33.6935C114.08 33.3992 114.46 33.252 114.914 33.252C115.367 33.252 115.741 33.3992 116.036 33.6935C116.342 33.9755 116.495 34.331 116.495 34.7602C116.495 35.1893 116.342 35.5511 116.036 35.8453C115.741 36.1273 115.367 36.2683 114.914 36.2683ZM116.183 37.4822V47.6714H113.608V37.4822H116.183ZM124.005 37.3351C125.219 37.3351 126.2 37.7213 126.948 38.4938C127.696 39.254 128.07 40.3207 128.07 41.694V47.6714H125.495V42.0434C125.495 41.2342 125.293 40.615 124.888 40.1859C124.483 39.7444 123.932 39.5237 123.233 39.5237C122.522 39.5237 121.958 39.7444 121.541 40.1859C121.136 40.615 120.934 41.2342 120.934 42.0434V47.6714H118.359V37.4822H120.934V38.7513C121.277 38.3099 121.712 37.9665 122.24 37.7213C122.779 37.4638 123.368 37.3351 124.005 37.3351ZM134.05 47.8369C133.216 47.8369 132.468 47.6898 131.806 47.3955C131.144 47.089 130.617 46.6782 130.224 46.1633C129.844 45.6483 129.636 45.0781 129.599 44.4528H132.192C132.241 44.8452 132.431 45.1701 132.762 45.4276C133.106 45.6851 133.529 45.8138 134.031 45.8138C134.522 45.8138 134.902 45.7157 135.172 45.5195C135.454 45.3234 135.595 45.072 135.595 44.7655C135.595 44.4344 135.423 44.1892 135.08 44.0298C134.749 43.8581 134.215 43.6742 133.48 43.478C132.719 43.2941 132.094 43.1041 131.604 42.9079C131.125 42.7117 130.709 42.4113 130.353 42.0067C130.01 41.602 129.838 41.0564 129.838 40.3698C129.838 39.8057 129.997 39.2908 130.316 38.8248C130.647 38.3589 131.113 37.9911 131.714 37.7213C132.327 37.4516 133.044 37.3167 133.866 37.3167C135.08 37.3167 136.048 37.6232 136.772 38.2363C137.495 38.8371 137.894 39.6525 137.967 40.6824H135.503C135.466 40.2778 135.294 39.959 134.988 39.7261C134.693 39.4808 134.295 39.3582 133.792 39.3582C133.326 39.3582 132.965 39.444 132.707 39.6157C132.462 39.7874 132.339 40.0265 132.339 40.333C132.339 40.6763 132.511 40.9399 132.854 41.1238C133.198 41.2955 133.731 41.4733 134.454 41.6572C135.19 41.8411 135.797 42.0312 136.275 42.2274C136.753 42.4236 137.164 42.7301 137.507 43.147C137.863 43.5516 138.047 44.0911 138.059 44.7655C138.059 45.354 137.894 45.8813 137.563 46.3472C137.244 46.8131 136.778 47.181 136.165 47.4507C135.564 47.7082 134.859 47.8369 134.05 47.8369Z" fill="#4E9F3D"/>
</g>
<rect x="336.919" y="243.532" width="139.046" height="16.0438" fill="#09090B"/>
<path d="M346.06 256.76H340.947L340.101 259.206H337.398L342.014 246.35H345.012L349.628 259.206H346.906L346.06 256.76ZM345.361 254.7L343.504 249.329L341.646 254.7H345.361ZM350.324 254.074C350.324 253.044 350.526 252.131 350.931 251.334C351.348 250.537 351.912 249.924 352.623 249.495C353.334 249.066 354.125 248.851 354.996 248.851C355.658 248.851 356.289 248.998 356.89 249.292C357.491 249.574 357.969 249.954 358.324 250.433V245.596H360.936V259.206H358.324V257.698C358.006 258.2 357.558 258.605 356.982 258.911C356.406 259.218 355.737 259.371 354.977 259.371C354.119 259.371 353.334 259.15 352.623 258.709C351.912 258.268 351.348 257.648 350.931 256.851C350.526 256.042 350.324 255.116 350.324 254.074ZM358.343 254.111C358.343 253.486 358.22 252.952 357.975 252.511C357.73 252.057 357.399 251.714 356.982 251.481C356.565 251.236 356.117 251.113 355.639 251.113C355.161 251.113 354.72 251.23 354.315 251.463C353.91 251.696 353.579 252.039 353.322 252.493C353.077 252.934 352.954 253.461 352.954 254.074C352.954 254.687 353.077 255.227 353.322 255.693C353.579 256.146 353.91 256.496 354.315 256.741C354.732 256.986 355.173 257.109 355.639 257.109C356.117 257.109 356.565 256.992 356.982 256.76C357.399 256.514 357.73 256.171 357.975 255.73C358.22 255.276 358.343 254.736 358.343 254.111ZM362.421 254.074C362.421 253.044 362.623 252.131 363.028 251.334C363.445 250.537 364.009 249.924 364.72 249.495C365.431 249.066 366.222 248.851 367.093 248.851C367.755 248.851 368.386 248.998 368.987 249.292C369.588 249.574 370.066 249.954 370.422 250.433V245.596H373.033V259.206H370.422V257.698C370.103 258.2 369.655 258.605 369.079 258.911C368.503 259.218 367.834 259.371 367.074 259.371C366.216 259.371 365.431 259.15 364.72 258.709C364.009 258.268 363.445 257.648 363.028 256.851C362.623 256.042 362.421 255.116 362.421 254.074ZM370.44 254.111C370.44 253.486 370.317 252.952 370.072 252.511C369.827 252.057 369.496 251.714 369.079 251.481C368.662 251.236 368.215 251.113 367.736 251.113C367.258 251.113 366.817 251.23 366.412 251.463C366.007 251.696 365.676 252.039 365.419 252.493C365.174 252.934 365.051 253.461 365.051 254.074C365.051 254.687 365.174 255.227 365.419 255.693C365.676 256.146 366.007 256.496 366.412 256.741C366.829 256.986 367.27 257.109 367.736 257.109C368.215 257.109 368.662 256.992 369.079 256.76C369.496 256.514 369.827 256.171 370.072 255.73C370.317 255.276 370.44 254.736 370.44 254.111ZM378.533 254.111C378.533 253.057 378.747 252.137 379.176 251.352C379.606 250.555 380.2 249.942 380.96 249.513C381.721 249.072 382.591 248.851 383.572 248.851C384.835 248.851 385.877 249.17 386.699 249.807C387.533 250.433 388.09 251.315 388.372 252.456H385.595C385.448 252.014 385.197 251.671 384.841 251.426C384.498 251.168 384.069 251.04 383.554 251.04C382.818 251.04 382.236 251.309 381.807 251.849C381.377 252.376 381.163 253.13 381.163 254.111C381.163 255.08 381.377 255.834 381.807 256.373C382.236 256.901 382.818 257.164 383.554 257.164C384.596 257.164 385.276 256.698 385.595 255.766H388.372C388.09 256.87 387.533 257.747 386.699 258.396C385.865 259.046 384.823 259.371 383.572 259.371C382.591 259.371 381.721 259.157 380.96 258.727C380.2 258.286 379.606 257.673 379.176 256.888C378.747 256.091 378.533 255.166 378.533 254.111ZM399.51 249.016V259.206H396.917V257.918C396.586 258.36 396.15 258.709 395.611 258.967C395.084 259.212 394.507 259.334 393.882 259.334C393.085 259.334 392.38 259.169 391.767 258.838C391.154 258.494 390.67 257.998 390.314 257.348C389.971 256.686 389.799 255.901 389.799 254.994V249.016H392.374V254.626C392.374 255.435 392.576 256.061 392.981 256.502C393.385 256.931 393.937 257.146 394.636 257.146C395.347 257.146 395.905 256.931 396.31 256.502C396.714 256.061 396.917 255.435 396.917 254.626V249.016H399.51ZM405.582 259.371C404.748 259.371 404 259.224 403.338 258.93C402.676 258.623 402.149 258.212 401.756 257.698C401.376 257.183 401.168 256.612 401.131 255.987H403.724C403.773 256.379 403.963 256.704 404.294 256.962C404.638 257.219 405.061 257.348 405.563 257.348C406.054 257.348 406.434 257.25 406.704 257.054C406.986 256.858 407.127 256.606 407.127 256.3C407.127 255.969 406.955 255.723 406.612 255.564C406.281 255.392 405.747 255.208 405.012 255.012C404.251 254.828 403.626 254.638 403.136 254.442C402.658 254.246 402.241 253.946 401.885 253.541C401.542 253.136 401.37 252.591 401.37 251.904C401.37 251.34 401.529 250.825 401.848 250.359C402.179 249.893 402.645 249.525 403.246 249.256C403.859 248.986 404.576 248.851 405.398 248.851C406.612 248.851 407.58 249.157 408.304 249.771C409.027 250.371 409.426 251.187 409.499 252.217H407.035C406.998 251.812 406.826 251.493 406.52 251.26C406.226 251.015 405.827 250.892 405.324 250.892C404.858 250.892 404.497 250.978 404.239 251.15C403.994 251.322 403.871 251.561 403.871 251.867C403.871 252.211 404.043 252.474 404.386 252.658C404.73 252.83 405.263 253.008 405.986 253.191C406.722 253.375 407.329 253.565 407.807 253.762C408.285 253.958 408.696 254.264 409.04 254.681C409.395 255.086 409.579 255.625 409.591 256.3C409.591 256.888 409.426 257.415 409.095 257.881C408.776 258.347 408.31 258.715 407.697 258.985C407.096 259.242 406.391 259.371 405.582 259.371ZM414.335 251.132V256.061C414.335 256.404 414.415 256.655 414.574 256.815C414.746 256.962 415.028 257.035 415.42 257.035H416.616V259.206H414.997C412.827 259.206 411.742 258.151 411.742 256.042V251.132H410.528V249.016H411.742V246.497H414.335V249.016H416.616V251.132H414.335ZM422.624 259.371C421.643 259.371 420.761 259.157 419.976 258.727C419.191 258.286 418.572 257.667 418.118 256.87C417.677 256.073 417.456 255.153 417.456 254.111C417.456 253.069 417.683 252.149 418.137 251.352C418.603 250.555 419.234 249.942 420.031 249.513C420.828 249.072 421.717 248.851 422.698 248.851C423.679 248.851 424.568 249.072 425.365 249.513C426.162 249.942 426.787 250.555 427.241 251.352C427.707 252.149 427.94 253.069 427.94 254.111C427.94 255.153 427.7 256.073 427.222 256.87C426.756 257.667 426.119 258.286 425.309 258.727C424.512 259.157 423.617 259.371 422.624 259.371ZM422.624 257.127C423.09 257.127 423.525 257.017 423.93 256.796C424.347 256.563 424.678 256.22 424.923 255.766C425.168 255.313 425.291 254.761 425.291 254.111C425.291 253.142 425.034 252.401 424.519 251.886C424.016 251.358 423.397 251.095 422.661 251.095C421.925 251.095 421.306 251.358 420.803 251.886C420.313 252.401 420.068 253.142 420.068 254.111C420.068 255.08 420.307 255.828 420.785 256.355C421.275 256.87 421.889 257.127 422.624 257.127ZM442.114 248.869C443.365 248.869 444.37 249.256 445.131 250.028C445.903 250.788 446.289 251.855 446.289 253.228V259.206H443.714V253.578C443.714 252.781 443.512 252.174 443.107 251.757C442.703 251.328 442.151 251.113 441.452 251.113C440.753 251.113 440.195 251.328 439.778 251.757C439.374 252.174 439.171 252.781 439.171 253.578V259.206H436.597V253.578C436.597 252.781 436.394 252.174 435.99 251.757C435.585 251.328 435.033 251.113 434.334 251.113C433.623 251.113 433.059 251.328 432.642 251.757C432.238 252.174 432.035 252.781 432.035 253.578V259.206H429.46V249.016H432.035V250.249C432.366 249.82 432.789 249.482 433.304 249.237C433.832 248.992 434.408 248.869 435.033 248.869C435.83 248.869 436.541 249.041 437.167 249.384C437.792 249.715 438.276 250.194 438.62 250.819C438.951 250.23 439.429 249.758 440.054 249.403C440.692 249.047 441.379 248.869 442.114 248.869ZM457.837 253.89C457.837 254.258 457.812 254.589 457.763 254.884H450.314C450.376 255.619 450.633 256.195 451.087 256.612C451.54 257.029 452.098 257.238 452.76 257.238C453.717 257.238 454.397 256.827 454.802 256.005H457.579C457.285 256.986 456.721 257.796 455.887 258.433C455.053 259.059 454.03 259.371 452.816 259.371C451.835 259.371 450.952 259.157 450.167 258.727C449.395 258.286 448.788 257.667 448.346 256.87C447.917 256.073 447.703 255.153 447.703 254.111C447.703 253.057 447.917 252.131 448.346 251.334C448.776 250.537 449.376 249.924 450.149 249.495C450.921 249.066 451.81 248.851 452.816 248.851C453.784 248.851 454.649 249.059 455.409 249.476C456.181 249.893 456.776 250.488 457.193 251.26C457.622 252.02 457.837 252.897 457.837 253.89ZM455.17 253.155C455.158 252.493 454.918 251.965 454.453 251.573C453.987 251.168 453.416 250.966 452.742 250.966C452.104 250.966 451.565 251.162 451.124 251.555C450.694 251.935 450.431 252.468 450.333 253.155H455.17ZM461.923 250.598C462.254 250.059 462.683 249.636 463.211 249.329C463.75 249.023 464.363 248.869 465.05 248.869V251.573H464.369C463.56 251.573 462.947 251.763 462.53 252.143C462.125 252.523 461.923 253.185 461.923 254.129V259.206H459.348V249.016H461.923V250.598ZM470.315 259.371C469.482 259.371 468.734 259.224 468.072 258.93C467.409 258.623 466.882 258.212 466.49 257.698C466.11 257.183 465.901 256.612 465.865 255.987H468.458C468.507 256.379 468.697 256.704 469.028 256.962C469.371 257.219 469.794 257.348 470.297 257.348C470.787 257.348 471.168 257.25 471.437 257.054C471.719 256.858 471.86 256.606 471.86 256.3C471.86 255.969 471.689 255.723 471.345 255.564C471.014 255.392 470.481 255.208 469.745 255.012C468.985 254.828 468.36 254.638 467.869 254.442C467.391 254.246 466.974 253.946 466.619 253.541C466.275 253.136 466.104 252.591 466.104 251.904C466.104 251.34 466.263 250.825 466.582 250.359C466.913 249.893 467.379 249.525 467.98 249.256C468.593 248.986 469.31 248.851 470.131 248.851C471.345 248.851 472.314 249.157 473.037 249.771C473.761 250.371 474.159 251.187 474.233 252.217H471.768C471.732 251.812 471.56 251.493 471.253 251.26C470.959 251.015 470.561 250.892 470.058 250.892C469.592 250.892 469.23 250.978 468.973 251.15C468.728 251.322 468.605 251.561 468.605 251.867C468.605 252.211 468.777 252.474 469.12 252.658C469.463 252.83 469.997 253.008 470.72 253.191C471.456 253.375 472.063 253.565 472.541 253.762C473.019 253.958 473.43 254.264 473.773 254.681C474.129 255.086 474.313 255.625 474.325 256.3C474.325 256.888 474.159 257.415 473.828 257.881C473.509 258.347 473.044 258.715 472.43 258.985C471.83 259.242 471.125 259.371 470.315 259.371Z" fill="#4E9F3D"/>
<rect x="40" y="87" width="257.374" height="298.821" rx="5.6849" fill="#09090B" stroke="#4E9F3D" stroke-width="2"/>
<rect x="56.1533" y="72.3983" width="100.274" height="28.0766" fill="#09090B"/>
<path d="M56.797 85.6459C56.797 84.383 57.0791 83.255 57.6431 82.2618C58.2194 81.2564 58.998 80.4778 59.9789 79.926C60.972 79.362 62.0817 79.08 63.3078 79.08C64.7424 79.08 65.9992 79.4478 67.0782 80.1835C68.1572 80.9192 68.9113 81.9369 69.3404 83.2366H66.3793C66.085 82.6235 65.6681 82.1637 65.1286 81.8572C64.6014 81.5506 63.9883 81.3974 63.2894 81.3974C62.5415 81.3974 61.8732 81.5752 61.2847 81.9307C60.7084 82.2741 60.2547 82.7645 59.9237 83.4021C59.6049 84.0397 59.4455 84.7876 59.4455 85.6459C59.4455 86.492 59.6049 87.2399 59.9237 87.8898C60.2547 88.5274 60.7084 89.0239 61.2847 89.3795C61.8732 89.7228 62.5415 89.8945 63.2894 89.8945C63.9883 89.8945 64.6014 89.7412 65.1286 89.4347C65.6681 89.1159 66.085 88.65 66.3793 88.0369H69.3404C68.9113 89.3489 68.1572 90.3727 67.0782 91.1084C66.0115 91.8318 64.7547 92.1935 63.3078 92.1935C62.0817 92.1935 60.972 91.9176 59.9789 91.3659C58.998 90.8018 58.2194 90.0233 57.6431 89.0301C57.0791 88.0369 56.797 86.9089 56.797 85.6459ZM80.7909 81.894V92.0832H78.1976V90.7957C77.8666 91.2371 77.4313 91.5866 76.8918 91.8441C76.3646 92.0893 75.7883 92.2119 75.1629 92.2119C74.366 92.2119 73.6609 92.0464 73.0479 91.7153C72.4348 91.372 71.9505 90.8754 71.5949 90.2256C71.2516 89.5634 71.0799 88.7787 71.0799 87.8714V81.894H73.6548V87.5035C73.6548 88.3128 73.8571 88.9381 74.2617 89.3795C74.6664 89.8087 75.2181 90.0233 75.917 90.0233C76.6282 90.0233 77.1861 89.8087 77.5907 89.3795C77.9953 88.9381 78.1976 88.3128 78.1976 87.5035V81.894H80.7909ZM86.8627 92.2487C86.029 92.2487 85.281 92.1016 84.6189 91.8073C83.9568 91.5007 83.4295 91.09 83.0372 90.575C82.6571 90.06 82.4486 89.4899 82.4119 88.8646H85.0051C85.0542 89.2569 85.2442 89.5818 85.5753 89.8393C85.9186 90.0968 86.3416 90.2256 86.8443 90.2256C87.3348 90.2256 87.7149 90.1275 87.9846 89.9313C88.2667 89.7351 88.4077 89.4838 88.4077 89.1772C88.4077 88.8462 88.236 88.6009 87.8927 88.4415C87.5616 88.2699 87.0283 88.086 86.2926 87.8898C85.5324 87.7059 84.907 87.5158 84.4166 87.3196C83.9384 87.1234 83.5215 86.823 83.1659 86.4184C82.8226 86.0138 82.6509 85.4682 82.6509 84.7815C82.6509 84.2175 82.8103 83.7025 83.1291 83.2366C83.4602 82.7707 83.9261 82.4028 84.5269 82.1331C85.14 81.8633 85.8573 81.7284 86.6788 81.7284C87.8927 81.7284 88.8613 82.035 89.5848 82.648C90.3082 83.2488 90.7067 84.0642 90.7802 85.0942H88.3157C88.2789 84.6896 88.1073 84.3708 87.8007 84.1378C87.5065 83.8926 87.108 83.77 86.6052 83.77C86.1393 83.77 85.7776 83.8558 85.5201 84.0274C85.2749 84.1991 85.1523 84.4382 85.1523 84.7447C85.1523 85.088 85.3239 85.3517 85.6672 85.5356C86.0106 85.7072 86.5439 85.885 87.2674 86.069C88.003 86.2529 88.61 86.4429 89.0882 86.6391C89.5664 86.8353 89.9771 87.1418 90.3204 87.5587C90.676 87.9633 90.8599 88.5028 90.8722 89.1772C90.8722 89.7658 90.7067 90.293 90.3756 90.7589C90.0568 91.2249 89.5909 91.5927 88.9778 91.8625C88.377 92.1199 87.672 92.2487 86.8627 92.2487ZM95.6159 84.009V88.9381C95.6159 89.2814 95.6956 89.5328 95.855 89.6922C96.0267 89.8393 96.3087 89.9129 96.701 89.9129H97.8965V92.0832H96.278C94.1078 92.0832 93.0226 91.0287 93.0226 88.9197V84.009H91.8088V81.894H93.0226V79.3743H95.6159V81.894H97.8965V84.009H95.6159ZM103.905 92.2487C102.924 92.2487 102.041 92.0341 101.257 91.605C100.472 91.1636 99.8527 90.5444 99.3991 89.7474C98.9577 88.9504 98.737 88.0308 98.737 86.9886C98.737 85.9463 98.9638 85.0267 99.4175 84.2298C99.8834 83.4328 100.515 82.8197 101.312 82.3905C102.109 81.9491 102.998 81.7284 103.979 81.7284C104.96 81.7284 105.849 81.9491 106.646 82.3905C107.443 82.8197 108.068 83.4328 108.522 84.2298C108.987 85.0267 109.22 85.9463 109.22 86.9886C109.22 88.0308 108.981 88.9504 108.503 89.7474C108.037 90.5444 107.4 91.1636 106.59 91.605C105.793 92.0341 104.898 92.2487 103.905 92.2487ZM103.905 90.0049C104.371 90.0049 104.806 89.8945 105.211 89.6738C105.628 89.4408 105.959 89.0975 106.204 88.6438C106.449 88.1902 106.572 87.6384 106.572 86.9886C106.572 86.0199 106.314 85.2781 105.8 84.7631C105.297 84.2359 104.678 83.9723 103.942 83.9723C103.206 83.9723 102.587 84.2359 102.084 84.7631C101.594 85.2781 101.349 86.0199 101.349 86.9886C101.349 87.9572 101.588 88.7052 102.066 89.2324C102.556 89.7474 103.169 90.0049 103.905 90.0049ZM123.395 81.7468C124.646 81.7468 125.651 82.1331 126.411 82.9055C127.184 83.6657 127.57 84.7325 127.57 86.1057V92.0832H124.995V86.4552C124.995 85.6582 124.793 85.0513 124.388 84.6344C123.984 84.2052 123.432 83.9907 122.733 83.9907C122.034 83.9907 121.476 84.2052 121.059 84.6344C120.655 85.0513 120.452 85.6582 120.452 86.4552V92.0832H117.877V86.4552C117.877 85.6582 117.675 85.0513 117.271 84.6344C116.866 84.2052 116.314 83.9907 115.615 83.9907C114.904 83.9907 114.34 84.2052 113.923 84.6344C113.519 85.0513 113.316 85.6582 113.316 86.4552V92.0832H110.741V81.894H113.316V83.1262C113.647 82.6971 114.07 82.3599 114.585 82.1147C115.113 81.8694 115.689 81.7468 116.314 81.7468C117.111 81.7468 117.822 81.9185 118.448 82.2618C119.073 82.5929 119.557 83.0711 119.901 83.6964C120.232 83.1078 120.71 82.6358 121.335 82.2802C121.973 81.9246 122.659 81.7468 123.395 81.7468ZM139.118 86.7679C139.118 87.1357 139.093 87.4668 139.044 87.761H131.595C131.657 88.4967 131.914 89.073 132.368 89.4899C132.821 89.9068 133.379 90.1152 134.041 90.1152C134.998 90.1152 135.678 89.7045 136.083 88.8829H138.86C138.566 89.8639 138.002 90.6731 137.168 91.3107C136.334 91.936 135.31 92.2487 134.097 92.2487C133.116 92.2487 132.233 92.0341 131.448 91.605C130.676 91.1636 130.069 90.5444 129.627 89.7474C129.198 88.9504 128.984 88.0308 128.984 86.9886C128.984 85.9341 129.198 85.0084 129.627 84.2114C130.056 83.4144 130.657 82.8013 131.43 82.3722C132.202 81.943 133.091 81.7284 134.097 81.7284C135.065 81.7284 135.93 81.9369 136.69 82.3538C137.462 82.7707 138.057 83.3653 138.474 84.1378C138.903 84.898 139.118 85.7747 139.118 86.7679ZM136.451 86.0322C136.438 85.3701 136.199 84.8428 135.733 84.4505C135.267 84.0458 134.697 83.8435 134.023 83.8435C133.385 83.8435 132.846 84.0397 132.404 84.4321C131.975 84.8122 131.712 85.3455 131.614 86.0322H136.451ZM143.204 83.4757C143.535 82.9362 143.964 82.5132 144.491 82.2066C145.031 81.9001 145.644 81.7468 146.331 81.7468V84.4505H145.65C144.841 84.4505 144.228 84.6405 143.811 85.0206C143.406 85.4007 143.204 86.0628 143.204 87.007V92.0832H140.629V81.894H143.204V83.4757ZM151.596 92.2487C150.763 92.2487 150.015 92.1016 149.352 91.8073C148.69 91.5007 148.163 91.09 147.771 90.575C147.391 90.06 147.182 89.4899 147.145 88.8646H149.739C149.788 89.2569 149.978 89.5818 150.309 89.8393C150.652 90.0968 151.075 90.2256 151.578 90.2256C152.068 90.2256 152.448 90.1275 152.718 89.9313C153 89.7351 153.141 89.4838 153.141 89.1772C153.141 88.8462 152.97 88.6009 152.626 88.4415C152.295 88.2699 151.762 88.086 151.026 87.8898C150.266 87.7059 149.641 87.5158 149.15 87.3196C148.672 87.1234 148.255 86.823 147.899 86.4184C147.556 86.0138 147.385 85.4682 147.385 84.7815C147.385 84.2175 147.544 83.7025 147.863 83.2366C148.194 82.7707 148.66 82.4028 149.26 82.1331C149.874 81.8633 150.591 81.7284 151.412 81.7284C152.626 81.7284 153.595 82.035 154.318 82.648C155.042 83.2488 155.44 84.0642 155.514 85.0942H153.049C153.012 84.6896 152.841 84.3708 152.534 84.1378C152.24 83.8926 151.842 83.77 151.339 83.77C150.873 83.77 150.511 83.8558 150.254 84.0274C150.008 84.1991 149.886 84.4382 149.886 84.7447C149.886 85.088 150.057 85.3517 150.401 85.5356C150.744 85.7072 151.277 85.885 152.001 86.069C152.737 86.2529 153.344 86.4429 153.822 86.6391C154.3 86.8353 154.711 87.1418 155.054 87.5587C155.41 87.9633 155.593 88.5028 155.606 89.1772C155.606 89.7658 155.44 90.293 155.109 90.7589C154.79 91.2249 154.324 91.5927 153.711 91.8625C153.111 92.1199 152.406 92.2487 151.596 92.2487Z" fill="#4E9F3D"/>
<rect x="68.186" y="107.16" width="191.57" height="22.7287" rx="8.11738" fill="#1E5128"/>
<line x1="72" y1="173" x2="260" y2="173" stroke="#1E5128" stroke-width="2"/>
<line x1="70" y1="208" x2="258" y2="208" stroke="#1E5128" stroke-width="2"/>
<line x1="72" y1="243" x2="260" y2="243" stroke="#1E5128" stroke-width="2"/>
<line x1="72" y1="280" x2="260" y2="280" stroke="#1E5128" stroke-width="2"/>
<rect x="321" y="35.9628" width="257.374" height="189.188" rx="5.6849" fill="#09090B" stroke="#4E9F3D" stroke-width="2"/>
<rect x="337.381" y="26.9409" width="180.492" height="16.0438" fill="#09090B"/>
<path d="M348.093 34.135C348.093 34.8217 347.927 35.4654 347.596 36.0662C347.277 36.667 346.768 37.1513 346.069 37.5192C345.383 37.887 344.512 38.0709 343.458 38.0709H341.306V43H338.731V30.1623H343.458C344.451 30.1623 345.297 30.334 345.996 30.6773C346.695 31.0206 347.216 31.4927 347.559 32.0935C347.915 32.6943 348.093 33.3748 348.093 34.135ZM343.347 35.9926C344.059 35.9926 344.586 35.8332 344.929 35.5144C345.272 35.1834 345.444 34.7236 345.444 34.135C345.444 32.8844 344.745 32.259 343.347 32.259H341.306V35.9926H343.347ZM359.025 37.6847C359.025 38.0525 359 38.3836 358.951 38.6779H351.502C351.564 39.4135 351.821 39.9898 352.275 40.4067C352.729 40.8236 353.286 41.0321 353.949 41.0321C354.905 41.0321 355.585 40.6213 355.99 39.7998H358.767C358.473 40.7807 357.909 41.5899 357.075 42.2275C356.241 42.8529 355.218 43.1655 354.004 43.1655C353.023 43.1655 352.14 42.951 351.355 42.5218C350.583 42.0804 349.976 41.4612 349.534 40.6642C349.105 39.8672 348.891 38.9476 348.891 37.9054C348.891 36.8509 349.105 35.9252 349.534 35.1282C349.964 34.3312 350.564 33.7181 351.337 33.289C352.109 32.8598 352.998 32.6453 354.004 32.6453C354.972 32.6453 355.837 32.8537 356.597 33.2706C357.369 33.6875 357.964 34.2822 358.381 35.0546C358.81 35.8148 359.025 36.6915 359.025 37.6847ZM356.358 36.949C356.346 36.2869 356.107 35.7597 355.641 35.3673C355.175 34.9627 354.605 34.7604 353.93 34.7604C353.293 34.7604 352.753 34.9565 352.312 35.3489C351.882 35.729 351.619 36.2624 351.521 36.949H356.358ZM366.183 32.6637C367.397 32.6637 368.377 33.0499 369.125 33.8224C369.873 34.5826 370.247 35.6493 370.247 37.0226V43H367.672V37.372C367.672 36.5628 367.47 35.9436 367.066 35.5144C366.661 35.073 366.109 34.8523 365.41 34.8523C364.699 34.8523 364.135 35.073 363.718 35.5144C363.314 35.9436 363.111 36.5628 363.111 37.372V43H360.536V32.8108H363.111V34.0799C363.455 33.6384 363.89 33.2951 364.417 33.0499C364.957 32.7924 365.545 32.6637 366.183 32.6637ZM371.666 37.8686C371.666 36.8387 371.868 35.9252 372.273 35.1282C372.69 34.3312 373.254 33.7181 373.965 33.289C374.676 32.8598 375.467 32.6453 376.338 32.6453C377 32.6453 377.631 32.7924 378.232 33.0867C378.833 33.3687 379.311 33.7488 379.667 34.227V29.3899H382.278V43H379.667V41.4919C379.348 41.9946 378.9 42.3992 378.324 42.7057C377.748 43.0123 377.079 43.1655 376.319 43.1655C375.461 43.1655 374.676 42.9448 373.965 42.5034C373.254 42.062 372.69 41.4428 372.273 40.6458C371.868 39.8366 371.666 38.9108 371.666 37.8686ZM379.685 37.9054C379.685 37.2801 379.562 36.7467 379.317 36.3053C379.072 35.8516 378.741 35.5083 378.324 35.2753C377.907 35.0301 377.459 34.9075 376.981 34.9075C376.503 34.9075 376.062 35.024 375.657 35.2569C375.252 35.4899 374.921 35.8332 374.664 36.2869C374.419 36.7283 374.296 37.2555 374.296 37.8686C374.296 38.4817 374.419 39.0212 374.664 39.4871C374.921 39.9408 375.252 40.2902 375.657 40.5355C376.074 40.7807 376.515 40.9033 376.981 40.9033C377.459 40.9033 377.907 40.7868 378.324 40.5539C378.741 40.3086 379.072 39.9653 379.317 39.5239C379.562 39.0702 379.685 38.5307 379.685 37.9054ZM385.731 31.5969C385.277 31.5969 384.897 31.4559 384.591 31.1739C384.296 30.8796 384.149 30.5179 384.149 30.0888C384.149 29.6596 384.296 29.3041 384.591 29.022C384.897 28.7278 385.277 28.5806 385.731 28.5806C386.185 28.5806 386.559 28.7278 386.853 29.022C387.159 29.3041 387.313 29.6596 387.313 30.0888C387.313 30.5179 387.159 30.8796 386.853 31.1739C386.559 31.4559 386.185 31.5969 385.731 31.5969ZM387 32.8108V43H384.425V32.8108H387ZM394.823 32.6637C396.036 32.6637 397.017 33.0499 397.765 33.8224C398.513 34.5826 398.887 35.6493 398.887 37.0226V43H396.312V37.372C396.312 36.5628 396.11 35.9436 395.705 35.5144C395.301 35.073 394.749 34.8523 394.05 34.8523C393.339 34.8523 392.775 35.073 392.358 35.5144C391.953 35.9436 391.751 36.5628 391.751 37.372V43H389.176V32.8108H391.751V34.0799C392.094 33.6384 392.53 33.2951 393.057 33.0499C393.596 32.7924 394.185 32.6637 394.823 32.6637ZM404.959 32.6453C405.719 32.6453 406.387 32.7985 406.964 33.1051C407.54 33.3993 407.994 33.7856 408.325 34.2638V32.8108H410.918V43.0736C410.918 44.0177 410.728 44.8576 410.348 45.5933C409.968 46.3412 409.398 46.9298 408.637 47.3589C407.877 47.8003 406.958 48.021 405.879 48.021C404.432 48.021 403.242 47.6838 402.311 47.0095C401.391 46.3351 400.87 45.4155 400.747 44.2507H403.304C403.439 44.7166 403.727 45.0844 404.168 45.3542C404.622 45.6362 405.167 45.7772 405.805 45.7772C406.553 45.7772 407.16 45.5504 407.626 45.0967C408.092 44.6553 408.325 43.9809 408.325 43.0736V41.4919C407.994 41.97 407.534 42.3685 406.945 42.6873C406.369 43.0061 405.707 43.1655 404.959 43.1655C404.101 43.1655 403.316 42.9448 402.605 42.5034C401.894 42.062 401.33 41.4428 400.913 40.6458C400.508 39.8366 400.306 38.9108 400.306 37.8686C400.306 36.8387 400.508 35.9252 400.913 35.1282C401.33 34.3312 401.888 33.7181 402.586 33.289C403.298 32.8598 404.088 32.6453 404.959 32.6453ZM408.325 37.9054C408.325 37.2801 408.202 36.7467 407.957 36.3053C407.712 35.8516 407.381 35.5083 406.964 35.2753C406.547 35.0301 406.099 34.9075 405.621 34.9075C405.143 34.9075 404.702 35.024 404.297 35.2569C403.892 35.4899 403.561 35.8332 403.304 36.2869C403.059 36.7283 402.936 37.2555 402.936 37.8686C402.936 38.4817 403.059 39.0212 403.304 39.4871C403.561 39.9408 403.892 40.2902 404.297 40.5355C404.714 40.7807 405.155 40.9033 405.621 40.9033C406.099 40.9033 406.547 40.7868 406.964 40.5539C407.381 40.3086 407.712 39.9653 407.957 39.5239C408.202 39.0702 408.325 38.5307 408.325 37.9054ZM416.454 36.5628C416.454 35.2999 416.736 34.1718 417.3 33.1786C417.877 32.1732 418.655 31.3946 419.636 30.8429C420.629 30.2788 421.739 29.9968 422.965 29.9968C424.4 29.9968 425.656 30.3647 426.735 31.1003C427.814 31.836 428.569 32.8537 428.998 34.1534H426.037C425.742 33.5404 425.325 33.0806 424.786 32.774C424.259 32.4675 423.646 32.3142 422.947 32.3142C422.199 32.3142 421.531 32.492 420.942 32.8476C420.366 33.1909 419.912 33.6814 419.581 34.319C419.262 34.9565 419.103 35.7045 419.103 36.5628C419.103 37.4088 419.262 38.1568 419.581 38.8066C419.912 39.4442 420.366 39.9408 420.942 40.2964C421.531 40.6397 422.199 40.8113 422.947 40.8113C423.646 40.8113 424.259 40.6581 424.786 40.3515C425.325 40.0327 425.742 39.5668 426.037 38.9537H428.998C428.569 40.2657 427.814 41.2895 426.735 42.0252C425.669 42.7486 424.412 43.1104 422.965 43.1104C421.739 43.1104 420.629 42.8345 419.636 42.2827C418.655 41.7187 417.877 40.9401 417.3 39.9469C416.736 38.9537 416.454 37.8257 416.454 36.5628ZM440.448 32.8108V43H437.855V41.7126C437.524 42.154 437.089 42.5034 436.549 42.7609C436.022 43.0061 435.446 43.1287 434.82 43.1287C434.023 43.1287 433.318 42.9632 432.705 42.6322C432.092 42.2888 431.608 41.7923 431.252 41.1424C430.909 40.4803 430.737 39.6956 430.737 38.7882V32.8108H433.312V38.4204C433.312 39.2296 433.514 39.855 433.919 40.2964C434.324 40.7255 434.875 40.9401 435.574 40.9401C436.285 40.9401 436.843 40.7255 437.248 40.2964C437.653 39.855 437.855 39.2296 437.855 38.4204V32.8108H440.448ZM446.52 43.1655C445.686 43.1655 444.938 43.0184 444.276 42.7241C443.614 42.4176 443.087 42.0068 442.694 41.4919C442.314 40.9769 442.106 40.4067 442.069 39.7814H444.662C444.711 40.1738 444.902 40.4987 445.233 40.7562C445.576 41.0137 445.999 41.1424 446.502 41.1424C446.992 41.1424 447.372 41.0443 447.642 40.8481C447.924 40.6519 448.065 40.4006 448.065 40.0941C448.065 39.763 447.893 39.5178 447.55 39.3584C447.219 39.1867 446.686 39.0028 445.95 38.8066C445.19 38.6227 444.564 38.4326 444.074 38.2365C443.596 38.0403 443.179 37.7399 442.823 37.3352C442.48 36.9306 442.308 36.385 442.308 35.6984C442.308 35.1343 442.468 34.6194 442.786 34.1534C443.117 33.6875 443.583 33.3196 444.184 33.0499C444.797 32.7801 445.515 32.6453 446.336 32.6453C447.55 32.6453 448.519 32.9518 449.242 33.5649C449.965 34.1657 450.364 34.9811 450.438 36.011H447.973C447.936 35.6064 447.765 35.2876 447.458 35.0546C447.164 34.8094 446.765 34.6868 446.263 34.6868C445.797 34.6868 445.435 34.7726 445.177 34.9443C444.932 35.1159 444.81 35.355 444.81 35.6616C444.81 36.0049 444.981 36.2685 445.325 36.4524C445.668 36.6241 446.201 36.8019 446.925 36.9858C447.66 37.1697 448.267 37.3598 448.745 37.556C449.224 37.7521 449.634 38.0587 449.978 38.4756C450.333 38.8802 450.517 39.4197 450.529 40.0941C450.529 40.6826 450.364 41.2098 450.033 41.6758C449.714 42.1417 449.248 42.5095 448.635 42.7793C448.034 43.0368 447.329 43.1655 446.52 43.1655ZM455.273 34.9259V39.855C455.273 40.1983 455.353 40.4496 455.512 40.609C455.684 40.7562 455.966 40.8297 456.358 40.8297H457.554V43H455.935C453.765 43 452.68 41.9455 452.68 39.8366V34.9259H451.466V32.8108H452.68V30.2911H455.273V32.8108H457.554V34.9259H455.273ZM463.562 43.1655C462.582 43.1655 461.699 42.951 460.914 42.5218C460.129 42.0804 459.51 41.4612 459.056 40.6642C458.615 39.8672 458.394 38.9476 458.394 37.9054C458.394 36.8632 458.621 35.9436 459.075 35.1466C459.541 34.3496 460.172 33.7365 460.969 33.3074C461.766 32.866 462.655 32.6453 463.636 32.6453C464.617 32.6453 465.506 32.866 466.303 33.3074C467.1 33.7365 467.725 34.3496 468.179 35.1466C468.645 35.9436 468.878 36.8632 468.878 37.9054C468.878 38.9476 468.639 39.8672 468.16 40.6642C467.694 41.4612 467.057 42.0804 466.248 42.5218C465.451 42.951 464.556 43.1655 463.562 43.1655ZM463.562 40.9217C464.028 40.9217 464.464 40.8113 464.868 40.5906C465.285 40.3577 465.616 40.0144 465.861 39.5607C466.107 39.107 466.229 38.5553 466.229 37.9054C466.229 36.9368 465.972 36.1949 465.457 35.68C464.954 35.1527 464.335 34.8891 463.599 34.8891C462.864 34.8891 462.244 35.1527 461.742 35.68C461.251 36.1949 461.006 36.9368 461.006 37.9054C461.006 38.874 461.245 39.622 461.723 40.1492C462.214 40.6642 462.827 40.9217 463.562 40.9217ZM483.052 32.6637C484.303 32.6637 485.308 33.0499 486.069 33.8224C486.841 34.5826 487.227 35.6493 487.227 37.0226V43H484.653V37.372C484.653 36.575 484.45 35.9681 484.046 35.5512C483.641 35.1221 483.089 34.9075 482.39 34.9075C481.691 34.9075 481.133 35.1221 480.717 35.5512C480.312 35.9681 480.11 36.575 480.11 37.372V43H477.535V37.372C477.535 36.575 477.332 35.9681 476.928 35.5512C476.523 35.1221 475.971 34.9075 475.273 34.9075C474.561 34.9075 473.997 35.1221 473.58 35.5512C473.176 35.9681 472.974 36.575 472.974 37.372V43H470.399V32.8108H472.974V34.0431C473.305 33.6139 473.728 33.2767 474.243 33.0315C474.77 32.7863 475.346 32.6637 475.971 32.6637C476.768 32.6637 477.48 32.8353 478.105 33.1786C478.73 33.5097 479.215 33.9879 479.558 34.6132C479.889 34.0247 480.367 33.5526 480.992 33.197C481.63 32.8415 482.317 32.6637 483.052 32.6637ZM498.775 37.6847C498.775 38.0525 498.75 38.3836 498.701 38.6779H491.253C491.314 39.4135 491.571 39.9898 492.025 40.4067C492.479 40.8236 493.037 41.0321 493.699 41.0321C494.655 41.0321 495.336 40.6213 495.74 39.7998H498.517C498.223 40.7807 497.659 41.5899 496.825 42.2275C495.992 42.8529 494.968 43.1655 493.754 43.1655C492.773 43.1655 491.89 42.951 491.105 42.5218C490.333 42.0804 489.726 41.4612 489.285 40.6642C488.855 39.8672 488.641 38.9476 488.641 37.9054C488.641 36.8509 488.855 35.9252 489.285 35.1282C489.714 34.3312 490.315 33.7181 491.087 33.289C491.859 32.8598 492.748 32.6453 493.754 32.6453C494.722 32.6453 495.587 32.8537 496.347 33.2706C497.12 33.6875 497.714 34.2822 498.131 35.0546C498.56 35.8148 498.775 36.6915 498.775 37.6847ZM496.108 36.949C496.096 36.2869 495.857 35.7597 495.391 35.3673C494.925 34.9627 494.355 34.7604 493.68 34.7604C493.043 34.7604 492.503 34.9565 492.062 35.3489C491.633 35.729 491.369 36.2624 491.271 36.949H496.108ZM502.861 34.3925C503.192 33.853 503.622 33.43 504.149 33.1235C504.688 32.8169 505.301 32.6637 505.988 32.6637V35.3673H505.307C504.498 35.3673 503.885 35.5573 503.468 35.9375C503.064 36.3176 502.861 36.9797 502.861 37.9238V43H500.286V32.8108H502.861V34.3925ZM511.254 43.1655C510.42 43.1655 509.672 43.0184 509.01 42.7241C508.348 42.4176 507.82 42.0068 507.428 41.4919C507.048 40.9769 506.839 40.4067 506.803 39.7814H509.396C509.445 40.1738 509.635 40.4987 509.966 40.7562C510.309 41.0137 510.732 41.1424 511.235 41.1424C511.726 41.1424 512.106 41.0443 512.376 40.8481C512.658 40.6519 512.799 40.4006 512.799 40.0941C512.799 39.763 512.627 39.5178 512.284 39.3584C511.952 39.1867 511.419 39.0028 510.683 38.8066C509.923 38.6227 509.298 38.4326 508.807 38.2365C508.329 38.0403 507.912 37.7399 507.557 37.3352C507.213 36.9306 507.042 36.385 507.042 35.6984C507.042 35.1343 507.201 34.6194 507.52 34.1534C507.851 33.6875 508.317 33.3196 508.918 33.0499C509.531 32.7801 510.248 32.6453 511.07 32.6453C512.284 32.6453 513.252 32.9518 513.976 33.5649C514.699 34.1657 515.098 34.9811 515.171 36.011H512.707C512.67 35.6064 512.498 35.2876 512.192 35.0546C511.897 34.8094 511.499 34.6868 510.996 34.6868C510.53 34.6868 510.168 34.7726 509.911 34.9443C509.666 35.1159 509.543 35.355 509.543 35.6616C509.543 36.0049 509.715 36.2685 510.058 36.4524C510.401 36.6241 510.935 36.8019 511.658 36.9858C512.394 37.1697 513.001 37.3598 513.479 37.556C513.957 37.7521 514.368 38.0587 514.711 38.4756C515.067 38.8802 515.251 39.4197 515.263 40.0941C515.263 40.6826 515.098 41.2098 514.766 41.6758C514.448 42.1417 513.982 42.5095 513.369 42.7793C512.768 43.0368 512.063 43.1655 511.254 43.1655Z" fill="#4E9F3D"/>
<line x1="356.462" y1="71" x2="544.462" y2="71" stroke="#1E5128" stroke-width="2"/>
<line x1="354.462" y1="106" x2="542.462" y2="106" stroke="#1E5128" stroke-width="2"/>
<line x1="356.462" y1="141" x2="544.462" y2="141" stroke="#1E5128" stroke-width="2"/>
<line x1="356.462" y1="178" x2="544.462" y2="178" stroke="#1E5128" stroke-width="2"/>
<path d="M548.339 349C542.638 349 538 353.638 538 359.339C538 365.04 542.638 369.678 548.339 369.678C554.04 369.678 558.678 365.04 558.678 359.339C558.678 353.638 554.04 349 548.339 349ZM553.038 360.488H549.488V364.038C549.488 364.673 548.973 365.187 548.339 365.187C547.705 365.187 547.19 364.673 547.19 364.038V360.488H543.639C543.005 360.488 542.491 359.973 542.491 359.339C542.491 358.705 543.005 358.19 543.639 358.19H547.19V354.639C547.19 354.005 547.705 353.491 548.339 353.491C548.973 353.491 549.488 354.005 549.488 354.639V358.19H553.038C553.673 358.19 554.187 358.705 554.187 359.339C554.187 359.973 553.673 360.488 553.038 360.488Z" fill="#4E9F3D"/>
</svg>
