<svg width="1205" height="468" viewBox="0 0 1205 468" fill="none" xmlns="http://www.w3.org/2000/svg">
<ellipse cx="233.665" cy="233.97" rx="233.665" ry="233.525" fill="#4E9F3D"/>
<path d="M467.496 233.525C467.496 171.979 443.185 112.921 399.849 69.1927C356.512 25.4646 297.656 0.601905 236.075 0.0107853C174.495 -0.580334 115.171 23.1479 71.0028 66.0361C26.8343 108.924 1.39256 167.504 0.209666 229.039C-0.973226 290.574 22.1983 350.087 64.686 394.639C107.174 439.191 165.542 465.179 227.099 466.953C288.657 468.726 348.426 446.141 393.41 404.108C438.395 362.076 464.958 303.995 467.323 242.494L456.7 242.086C454.442 300.789 429.088 356.227 386.15 396.347C343.212 436.467 294.832 98.1366 236.075 96.4441C177.319 94.7516 112.936 429.834 72.3818 387.309C31.8272 344.784 9.7099 287.978 10.839 229.243C11.9681 170.508 36.2522 114.593 78.4112 73.6565C120.57 32.7196 177.195 10.071 235.973 10.6352C294.752 11.1994 350.931 34.9309 392.295 76.6695C433.66 118.408 456.865 174.779 456.865 233.525H467.496Z" fill="#D8E9A8"/>
<path d="M666.161 262.575V235.316H738.22V302.397C721.864 319.464 696.739 329.656 672.324 329.656C625.154 329.656 585.095 291.019 585.095 245.272C585.095 199.524 625.154 161.125 672.324 161.125C696.739 161.125 721.864 171.317 738.22 188.384L712.857 211.139C703.138 199.998 687.257 192.887 672.324 192.887C644.591 192.887 621.125 217.065 621.125 245.272C621.125 273.716 644.591 297.893 672.324 297.893C683.465 297.893 694.842 294.101 704.087 287.464V262.575H666.161ZM816.717 201.42C848.716 201.42 870.524 221.568 870.524 253.568V326.812H837.102V314.486C828.331 324.441 814.346 329.656 801.073 329.656C774.999 329.656 754.851 314.012 754.851 290.545C754.851 266.368 777.369 249.775 805.813 249.775C815.769 249.775 826.672 251.909 837.102 255.938V253.568C837.102 240.531 829.043 229.153 808.895 229.153C797.517 229.153 786.85 232.946 777.132 237.924L765.517 214.931C782.821 206.161 799.65 201.42 816.717 201.42ZM808.895 305.716C822.169 305.716 834.731 299.553 837.102 288.175V276.797C829.28 273.953 820.272 272.294 810.791 272.294C798.228 272.294 788.273 279.642 788.273 289.597C788.273 299.553 797.043 305.716 808.895 305.716ZM912.255 187.435C901.588 187.435 893.292 178.902 893.292 168.473C893.292 158.754 901.588 149.984 912.255 149.984C922.447 149.984 930.743 158.754 930.743 168.473C930.743 178.902 922.447 187.435 912.255 187.435ZM894.714 326.812V204.265H929.321V326.812H894.714ZM1025.67 201.42C1052.21 201.42 1071.18 221.094 1071.18 248.827V326.812H1037.75V256.175C1037.75 241.005 1028.27 230.576 1014.53 230.576C1000.07 230.576 988.926 241.005 988.926 254.279L988.689 253.568V326.812H954.082V204.265H988.689V219.672C996.037 208.532 1009.78 201.42 1025.67 201.42ZM1141.64 329.656C1121.96 329.656 1101.1 323.019 1086.41 311.167L1101.34 287.227C1112.24 295.049 1125.99 300.975 1142.35 300.975C1151.59 300.975 1158.23 297.182 1158.23 291.731C1158.23 284.145 1149.22 281.775 1136.66 278.457C1111.53 272.294 1092.1 265.42 1091.86 241.242C1091.62 218.013 1110.82 201.42 1139.74 201.42C1157.28 201.42 1174.58 207.583 1188.1 216.591L1174.11 241.242C1162.97 234.368 1150.17 230.339 1139.74 230.339C1131.21 230.339 1125.28 233.42 1125.28 237.687C1125.28 244.324 1130.26 246.22 1146.85 250.724C1167.95 256.175 1191.41 263.286 1191.41 290.071C1191.41 314.249 1171.74 329.656 1141.64 329.656Z" fill="#4E9F3D"/>
</svg>
