<svg width="468" height="468" viewBox="0 0 468 468" fill="none" xmlns="http://www.w3.org/2000/svg">
<ellipse cx="233.665" cy="233.97" rx="233.665" ry="233.525" fill="#4E9F3D"/>
<path d="M467.496 233.525C467.496 171.979 443.185 112.921 399.849 69.1927C356.512 25.4646 297.656 0.601905 236.075 0.0107853C174.495 -0.580334 115.171 23.1479 71.0028 66.0361C26.8343 108.924 1.39256 167.504 0.209666 229.039C-0.973226 290.574 22.1983 350.087 64.686 394.639C107.174 439.191 165.542 465.179 227.099 466.953C288.657 468.726 348.426 446.141 393.41 404.108C438.395 362.076 464.958 303.995 467.323 242.494L456.7 242.086C454.442 300.789 429.088 356.227 386.15 396.347C343.212 436.467 294.832 98.1366 236.075 96.4441C177.319 94.7516 112.936 429.834 72.3818 387.309C31.8272 344.784 9.7099 287.978 10.839 229.243C11.9681 170.508 36.2522 114.593 78.4112 73.6565C120.57 32.7196 177.195 10.071 235.973 10.6352C294.752 11.1994 350.931 34.9309 392.295 76.6695C433.66 118.408 456.865 174.779 456.865 233.525H467.496Z" fill="#D8E9A8"/>
</svg>
